<?xml version="1.0" encoding="UTF-8"?><svg id="_レイヤー_1" xmlns="http://www.w3.org/2000/svg" xmlns:xlink="http://www.w3.org/1999/xlink" viewBox="0 0 128 128"><defs><style>.cls-1{fill:#a6aeb0;}.cls-2{fill:#b0bdc6;}.cls-3{fill:none;}.cls-4{fill:#fff8de;}.cls-5{fill:#333;}.cls-6{fill:#575b5e;}.cls-7{isolation:isolate;opacity:.6;}.cls-8{fill:lime;}.cls-9{clip-path:url(#clippath);}.cls-10{fill:#dfe9ef;}</style><clipPath id="clippath"><path class="cls-3" d="M106.5537,30.2211c-18.2496-18.2536-47.8429-18.2516-66.0965,0-18.2536,18.2516-18.2496,47.8449,0,66.0965,18.2577,18.2516,47.8429,18.2557,66.0965,0,18.2516-18.2496,18.2516-47.8429,0-66.0965Z"/></clipPath></defs><rect class="cls-4" x="5.4849" y="24.1972" width="117.9199" height="78.1448" rx="12" ry="12"/><path d="M111.4048,24.1972H17.4849c-6.6,0-12,5.4-12,12v54.1448c0,6.6,5.4,12,12,12h93.9199c6.6,0,12-5.4,12-12v-54.1448c0-6.6-5.4-12-12-12ZM111.4048,28.1972c1.0544,0,2.0594.2101,2.9821.5824l-49.9479,35.322L14.1705,28.925c1.0114-.4628,2.1313-.7278,3.3143-.7278h93.9199ZM119.4048,90.342c0,4.4112-3.5887,8-8,8H17.4849c-4.4112,0-8-3.5888-8-8v-54.1448c0-1.7253.5546-3.3205,1.487-4.6287l53.4788,37.4236,53.2774-37.6772c1.0468,1.3526,1.6767,3.0434,1.6767,4.8822v54.1448Z"/><g class="cls-9"><rect x="5.4849" y="8.5964" width="117.9199" height="106.9571" rx="14.039" ry="14.039"/><path class="cls-8" d="M111.4048,24.1972H17.4849c-6.6,0-12,5.4-12,12v54.1448c0,6.6,5.4,12,12,12h93.9199c6.6,0,12-5.4,12-12v-54.1448c0-6.6-5.4-12-12-12ZM111.4048,28.1972c1.0544,0,2.0593.2101,2.9819.5823l-49.9478,35.3223L14.1707,28.9249c1.0113-.4628,2.1312-.7277,3.3141-.7277h93.9199ZM119.4048,90.342c0,4.4112-3.5887,8-8,8H17.4849c-4.4112,0-8-3.5888-8-8v-54.1448c0-1.7253.5546-3.3206,1.4871-4.6288l53.4787,37.4241,53.2776-37.6771c1.0466,1.3525,1.6765,3.0432,1.6765,4.8818v54.1448Z"/></g><rect class="cls-2" x="104.6443" y="95.7502" width="11.5216" height="8.8413" transform="translate(-38.4956 107.3864) rotate(-44.9919)"/><rect class="cls-10" x="107.4065" y="95.7468" width="6.0001" height="8.837" transform="translate(-38.4882 107.4494) rotate(-45.0164)"/><rect class="cls-2" x="102.8135" y="96.5036" width="11.5216" height="3.661" transform="translate(-37.731 105.5958) rotate(-45.0081)"/><path class="cls-10" d="M104.019,93.7829c-16.8523,16.8566-44.1748,16.8545-61.027,0-16.8502-16.8523-16.8545-44.1726,0-61.0271,16.8501-16.8502,44.1812-16.8523,61.027,0,16.8502,16.8502,16.848,44.1769,0,61.0271ZM108.6478,28.1269c-19.406-19.4103-50.8745-19.4081-70.2848,0-19.4103,19.4082-19.406,50.8766,0,70.2848,19.4146,19.4081,50.8745,19.4124,70.2848,0,19.4082-19.406,19.4082-50.8745,0-70.2848Z"/><path class="cls-2" d="M102.7915,92.5554c-16.172,16.1785-42.3936,16.1742-58.5678,0-16.1742-16.1742-16.1785-42.3958,0-58.5699,16.1699-16.172,42.4001-16.1742,58.5678,0,16.1742,16.1699,16.172,42.3979,0,58.5699ZM105.1327,31.6399c-17.4639-17.466-45.7885-17.4639-63.2589,0-17.4661,17.4682-17.4661,45.7907,0,63.2589,17.4703,17.4682,45.795,17.466,63.2589,0,17.4661-17.466,17.4704-45.7907,0-63.2589Z"/><g class="cls-7"><path class="cls-1" d="M96.9094,73.1816c-13.9853,13.9874-36.651,13.9874-50.6342.0064-3.6975-3.7018-6.3885-8.0195-8.1268-12.6162-.955,10.2406,2.485,20.8095,10.3242,28.6466,13.9831,13.9788,36.6489,13.9788,50.6277,0,10.2835-10.2814,12.9745-25.2538,8.1332-38.018-.7468,8.0216-4.1846,15.8416-10.3242,21.9812Z"/></g><rect class="cls-5" x="116.6853" y="96.1027" width="21.0689" height="41.758" transform="translate(-45.4568 124.2211) rotate(-45)"/><rect class="cls-6" x="121.4571" y="96.0991" width="11.5216" height="41.758" transform="translate(-45.4537 124.2432) rotate(-45.0081)"/></svg>